<?xml version="1.0" encoding="UTF-8"?> <svg xmlns="http://www.w3.org/2000/svg" width="307" height="88" viewBox="0 0 307 88" fill="none"> <path fill-rule="evenodd" clip-rule="evenodd" d="M54.9625 36.0016L38.1219 45.634L38.5618 47.0181L46.842 65.999H43.962L27.4812 53.9984L11.1206 65.999H8.12049L16.2805 47.1701L16.7605 45.5901L0 35.9897V34.0016H20.4809L26.6013 14.0006H28.1214L34.4015 34.0016H54.9625V36.0016Z" fill="#E6C553"></path> <path fill-rule="evenodd" clip-rule="evenodd" d="M117.926 36.0016L101.086 45.634L101.526 47.0181L109.806 65.999H106.926L90.4451 53.9984L74.0844 65.999H71.0843L79.2444 47.1701L79.7244 45.5901L62.9638 35.9897V34.0016H83.4447L89.5651 14.0006H91.0852L97.3653 34.0016H117.926V36.0016Z" fill="#E6C553"></path> <path fill-rule="evenodd" clip-rule="evenodd" d="M180.888 36.0016L164.048 45.634L164.488 47.0181L172.768 65.999H169.888L153.407 53.9984L137.046 65.999H134.046L142.206 47.1701L142.686 45.5901L125.926 35.9897V34.0016H146.407L152.527 14.0006H154.047L160.327 34.0016H180.888V36.0016Z" fill="#E6C553"></path> <path fill-rule="evenodd" clip-rule="evenodd" d="M243.85 36.0016L227.009 45.634L227.449 47.0181L235.73 65.999H232.85L216.369 53.9984L200.008 65.999H197.008L205.168 47.1701L205.648 45.5901L188.888 35.9897V34.0016H209.368L215.489 14.0006H217.009L223.289 34.0016H243.85V36.0016Z" fill="#DDDDDD"></path> <path fill-rule="evenodd" clip-rule="evenodd" d="M243.85 36.0016L227.009 45.634L227.449 47.0181L235.73 65.999H232.85L216.369 53.9984L200.008 65.999H197.008L205.168 47.1701L205.648 45.5901L188.888 35.9897V34.0016H209.368L215.489 14.0006H217.009L223.289 34.0016H243.85V36.0016Z" fill="#E6C553"></path> <path fill-rule="evenodd" clip-rule="evenodd" d="M306.814 36.0016L289.973 45.634L290.413 47.0181L298.693 65.999H295.813L279.333 53.9984L262.972 65.999H259.972L268.132 47.1701L268.612 45.5901L251.851 35.9897V34.0016H272.332L278.453 14.0006H279.973L286.253 34.0016H306.814V36.0016Z" fill="#DDDDDD"></path> <path fill-rule="evenodd" clip-rule="evenodd" d="M306.814 36.0016L289.973 45.634L290.413 47.0181L298.693 65.999H295.813L279.333 53.9984L262.972 65.999H259.972L268.132 47.1701L268.612 45.5901L251.851 35.9897V34.0016H272.332L278.453 14.0006H279.973L286.253 34.0016H306.814V36.0016Z" fill="#E6C553"></path> </svg> 